<?xml version="1.0" encoding="UTF-8" standalone="no"?>
<svg
   xmlns:dc="http://purl.org/dc/elements/1.1/"
   xmlns:cc="http://creativecommons.org/ns#"
   xmlns:rdf="http://www.w3.org/1999/02/22-rdf-syntax-ns#"
   xmlns:svg="http://www.w3.org/2000/svg"
   xmlns="http://www.w3.org/2000/svg"
   xmlns:sodipodi="http://sodipodi.sourceforge.net/DTD/sodipodi-0.dtd"
   xmlns:inkscape="http://www.inkscape.org/namespaces/inkscape"
   inkscape:version="1.0 (4035a4fb49, 2020-05-01)"
   sodipodi:docname="Black_cat.svg"
   xml:space="preserve"
   width="512px"
   viewBox="0 0 512 512"
   version="1.1"
   id="Black_x5F_cat"
   height="512px"
   enable-background="new 0 0 512 512"><metadata
     id="metadata15"><rdf:RDF><cc:Work
         rdf:about=""><dc:format>image/svg+xml</dc:format><dc:type
           rdf:resource="http://purl.org/dc/dcmitype/StillImage" /><dc:title></dc:title></cc:Work></rdf:RDF></metadata><defs
     id="defs13"><rect
       id="rect20"
       height="150.36431"
       width="221.73978"
       y="213.17472"
       x="-525.32342" /></defs><sodipodi:namedview
     inkscape:current-layer="Black_x5F_cat"
     inkscape:window-maximized="1"
     inkscape:window-y="-8"
     inkscape:window-x="-8"
     inkscape:cy="228.29467"
     inkscape:cx="520.08922"
     inkscape:zoom="1.0507812"
     showgrid="false"
     id="namedview11"
     inkscape:window-height="705"
     inkscape:window-width="1366"
     inkscape:pageshadow="2"
     inkscape:pageopacity="0"
     guidetolerance="10"
     gridtolerance="10"
     objecttolerance="10"
     borderopacity="1"
     bordercolor="#666666"
     pagecolor="#ffffff" /><g
     transform="matrix(0.59714755,0,0,0.59714755,100.81322,19.754006)"
     id="g8"><path
       id="path2"
       d="m 330.464,146.338 -15.656,-8.151 -2.521,-1.311 -13.135,-6.84 c -1.886,-0.983 -4.021,0.784 -3.415,2.819 l 2.979,10.018 c 2.72,9.133 12.449,14.196 21.484,11.188 l 1.945,-0.655 7.973,-2.661 c 2.014,-0.665 2.232,-3.434 0.346,-4.407 z" /><path
       id="path4"
       d="m 379.828,142.873 2.979,-10.018 c 0.605,-2.035 -1.529,-3.803 -3.415,-2.819 l -13.135,6.84 -2.521,1.311 -15.656,8.151 c -1.887,0.973 -1.668,3.742 0.347,4.407 l 7.973,2.661 1.945,0.655 c 9.034,3.008 18.762,-2.055 21.483,-11.188 z" /><path
       id="path6"
       d="m 389.094,436.461 -13.221,-70.964 8.119,-25.334 c 7.406,-23.107 5.834,-47.897 -4.427,-69.813 -0.104,-0.236 -0.216,-0.471 -0.319,-0.686 -4.412,-9.337 -7.131,-19.171 -8.082,-29.23 l -4.361,-46.03 c 16.558,-12.002 31.166,-32.064 31.166,-50.289 0,-0.938 -0.037,-1.88 -0.098,-2.825 h 0.098 V 46.673 l -6.676,3.705 c -1.023,0.569 -23.105,13.1 -32.238,38.769 -6.059,-2.43 -12.599,-3.824 -19.467,-3.824 -6.869,0 -13.408,1.395 -19.467,3.824 -9.133,-25.669 -31.216,-38.199 -32.239,-38.769 l -6.675,-3.705 v 94.617 h 0.097 c -0.06,0.945 -0.097,1.888 -0.097,2.825 0,12.742 7.539,28.043 20.168,40.93 3.564,3.637 7.286,6.836 11.053,9.572 -3.861,28.237 -21.217,52.796 -46.842,66.058 l -44.261,22.918 -0.167,0.091 c -30.309,17.361 -49.137,49.666 -49.137,84.308 0,17.682 4.785,34.275 13.138,48.582 -31.296,-18.042 -51.275,-51.542 -51.037,-87.758 0.198,-31.004 14.346,-59.719 38.817,-78.783 l 35.679,-27.815 c 28.419,-22.146 44.719,-55.516 44.719,-91.552 0,-18.962 -7.438,-36.771 -20.944,-50.146 -13.501,-13.37 -31.338,-20.605 -50.347,-20.446 -38.543,0.372 -69.901,32.418 -69.901,71.437 v 6.75 c 0,4.691 1.827,9.096 5.131,12.388 3.305,3.316 7.708,5.144 12.4,5.144 9.667,0 17.531,-7.864 17.531,-17.531 v -7.595 c 0,-9.61 3.792,-18.619 10.676,-25.368 6.882,-6.745 15.925,-10.361 25.589,-10.161 9.208,0.187 17.889,4.055 24.446,10.894 6.783,7.075 10.551,16.716 10.338,26.451 -0.536,24.424 -11.906,47.053 -31.196,62.084 l -35.68,27.807 c -16.198,12.63 -29.527,29.061 -38.546,47.517 -9.012,18.451 -13.775,39.067 -13.775,59.619 0,74.891 60.929,135.82 135.82,135.82 h 31.255 v -0.098 c 1.368,0.057 2.743,0.092 4.125,0.092 v -8.986 c -49.213,0 -89.251,-39.631 -89.251,-88.344 0,-31.398 17.062,-60.688 44.536,-76.463 l 44.176,-22.873 c 27.018,-13.983 45.687,-39.381 50.975,-68.828 6.602,3.508 13.096,5.421 18.895,5.421 5.719,0 12.192,-2.02 18.695,-5.487 l 3.934,41.521 c 1.049,11.1 4.045,21.941 8.916,32.249 0.074,0.156 0.15,0.313 0.219,0.469 l 0.052,0.115 c 9.316,19.865 10.748,42.348 4.031,63.306 l -8.812,27.493 13.326,71.534 h -8.703 v 8.987 h 17.316 c 6.925,0 12.796,4.596 14.723,10.898 h -35.262 l -28.172,-80.771 c -3.2,-29.654 -28.375,-52.82 -58.865,-52.82 v 8.986 c 27.696,0 50.229,22.533 50.229,50.229 0,3.109 -0.283,6.203 -0.852,9.242 -0.049,0.277 -0.105,0.556 -0.157,0.817 -0.579,2.849 -1.411,5.653 -2.477,8.343 -2.806,7.131 -7.316,13.646 -13.09,18.882 l -0.304,0.263 c -6.54,5.817 -14.482,9.828 -22.982,11.603 -3.38,0.716 -6.867,1.079 -10.367,1.079 v 8.987 h 34.445 c 9.296,0 17.105,6.481 19.145,15.161 h -36.334 v 8.987 h 45.839 v -4.493 c 0,-15.793 -12.853,-28.643 -28.649,-28.643 h -3.083 c 2.798,-1.75 5.455,-3.737 7.937,-5.944 l 0.09,-0.078 c 0.133,-0.114 0.266,-0.23 0.349,-0.308 6.745,-6.117 12.06,-13.795 15.366,-22.197 0.764,-1.932 1.414,-3.92 1.971,-5.939 l 23.58,67.603 h 51.301 v -4.493 c -0.004,-13.269 -10.654,-24.086 -23.851,-24.371 z M 228.71,456.175 c -67.075,-3.229 -120.652,-58.808 -120.652,-126.668 0,-19.19 4.448,-38.441 12.862,-55.669 8.422,-17.233 20.868,-32.575 35.993,-44.368 l 35.679,-27.806 c 21.433,-16.702 34.066,-41.846 34.662,-68.986 0.265,-12.106 -4.416,-24.09 -12.84,-32.877 -8.223,-8.576 -19.147,-13.429 -30.762,-13.663 -12.052,-0.235 -23.446,4.28 -32.07,12.732 -8.626,8.455 -13.376,19.746 -13.376,31.795 v 7.595 c 0,4.704 -3.827,8.531 -8.531,8.531 -2.281,0 -4.421,-0.887 -6.036,-2.508 -1.609,-1.603 -2.496,-3.742 -2.496,-6.023 v -6.75 c 0,-34.104 27.359,-62.112 60.988,-62.437 16.553,-0.185 32.145,6.175 43.927,17.842 11.786,11.671 18.277,27.208 18.277,43.75 0,33.242 -15.036,64.023 -41.252,84.454 l -35.678,27.814 c -26.657,20.767 -42.069,52.048 -42.285,85.823 -0.296,45.148 28.191,86.411 70.976,102.997 8.98,10.239 20.081,18.601 32.614,24.422 z M 388.98,62.943 v 51.933 C 383.628,106.233 376.138,98.55 367.183,93.185 372.152,78.466 382.241,68.363 388.98,62.943 Z m -98.786,0.001 c 6.742,5.421 16.829,15.522 21.797,30.24 -8.955,5.365 -16.444,13.049 -21.797,21.691 z m 49.394,133.317 c -18.77,0 -49.394,-29.132 -49.394,-52.146 0,-22.56 22.032,-49.806 49.394,-49.806 27.362,0 49.393,27.246 49.393,49.806 0,10.382 -6.656,23.327 -17.807,34.628 -10.498,10.642 -22.897,17.518 -31.586,17.518 z" /></g><g
     style="display:inline"
     inkscape:label="Layer 1"
     id="layer1"
     inkscape:groupmode="layer"><text
       transform="matrix(0.59714755,0,0,0.59714755,524.49056,116.37673)"
       style="font-weight:bold;font-size:96px;line-height:0.2;font-family:sans-serif;-inkscape-font-specification:'sans-serif Bold';letter-spacing:0px;word-spacing:0px;white-space:pre;shape-inside:url(#rect20);fill:#892ca0;"
       id="text18"
       xml:space="preserve"><tspan
         x="-525.32422"
         y="250.35754"><tspan
           style="font-style:italic;font-variant:normal;font-weight:bold;font-stretch:normal;font-family:'Comic Sans MS';-inkscape-font-specification:'Comic Sans MS Bold Italic';fill:#892ca0">MK</tspan></tspan></text></g></svg>
